<svg width="48" height="48" viewBox="0 0 48 48" fill="none" xmlns="http://www.w3.org/2000/svg">
<path d="M42.125 22.75H38.75V13.75C38.75 11.275 36.725 9.25 34.25 9.25H25.25V5.875C25.25 2.77 22.73 0.25 19.625 0.25C16.52 0.25 14 2.77 14 5.875V9.25H5C2.525 9.25 0.5225 11.275 0.5225 13.75V22.3H3.875C7.2275 22.3 9.95 25.0225 9.95 28.375C9.95 31.7275 7.2275 34.45 3.875 34.45H0.5V43C0.5 45.475 2.525 47.5 5 47.5H13.55V44.125C13.55 40.7725 16.2725 38.05 19.625 38.05C22.9775 38.05 25.7 40.7725 25.7 44.125V47.5H34.25C36.725 47.5 38.75 45.475 38.75 43V34H42.125C45.23 34 47.75 31.48 47.75 28.375C47.75 25.27 45.23 22.75 42.125 22.75Z" fill="white"/>
</svg>
